<svg version="1.0" xmlns="http://www.w3.org/2000/svg"
 viewBox="0 0 500.000000 500.000000"
 preserveAspectRatio="xMidYMid meet">

<g transform="translate(0,500) scale(0.100000,-0.100000)"
fill="#FAC86B" stroke="none">
<path d="M1540 2750 l0 -960 433 2 432 3 3 177 2 178 -217 2 -218 3 -3 778 -2
777 -215 0 -215 0 0 -960z"/>
<path d="M2122 3534 l3 -179 220 -6 c195 -5 227 -8 285 -28 157 -56 262 -146
329 -283 45 -92 61 -168 61 -293 -1 -270 -132 -462 -382 -554 l-73 -27 0 -179
0 -180 35 3 c60 5 182 34 250 59 298 111 493 319 581 618 21 71 24 100 24 265
0 201 -7 241 -65 386 -105 262 -345 458 -660 540 -97 25 -124 27 -358 32
l-252 4 2 -178z"/>
</g>
</svg>
